<?xml version="1.0" encoding="UTF-8"?>
<svg width="125" height="125" version="1.1" viewBox="0 0 33.073 33.073" xmlns="http://www.w3.org/2000/svg" xmlns:xlink="http://www.w3.org/1999/xlink"><defs><linearGradient id="a" x1="-64.027" x2="-64.007" y1="32.257" y2="13.062" gradientTransform="translate(64.235 -6.3032)" gradientUnits="userSpaceOnUse"><stop stop-color="#8d18fa" offset="0"/><stop stop-color="#3d6df3" offset="1"/></linearGradient></defs><g shape-rendering="auto"><path d="m16.537 0c-9.111 1.8608e-7 -16.537 7.4262-16.537 16.537-6.6499e-16 9.111 7.4262 16.535 16.537 16.535 9.111 0 16.535-7.4242 16.535-16.535-1e-6 -9.111-7.4242-16.537-16.535-16.537zm0 3.6953c7.1142 0 12.842 5.7276 12.842 12.842 0 7.1142-5.7276 12.842-12.842 12.842-7.1142 0-12.842-5.7276-12.842-12.842 1e-7 -7.1142 5.7276-12.842 12.842-12.842z" color="#000000" color-rendering="auto" dominant-baseline="auto" fill="#c6c6c6" image-rendering="auto" opacity=".992" solid-color="#000000" stop-color="#000000" style="font-feature-settings:normal;font-variant-alternates:normal;font-variant-caps:normal;font-variant-east-asian:normal;font-variant-ligatures:normal;font-variant-numeric:normal;font-variant-position:normal;font-variation-settings:normal;inline-size:0;isolation:auto;mix-blend-mode:normal;shape-margin:0;shape-padding:0;text-decoration-color:#000000;text-decoration-line:none;text-decoration-style:solid;text-indent:0;text-orientation:mixed;text-transform:none;white-space:normal"/><path d="m2.5605 7.7151c-1.6316 2.5616-2.5818 5.5966-2.5818 8.8491 0 2.7447 0.67766 5.3341 1.8686 7.6161l3.19-1.8417c-0.87077-1.7345-1.3632-3.6942-1.3632-5.7743 0-2.5911 0.76245-4.9964 2.0722-7.0099z" color="#000000" color-rendering="auto" dominant-baseline="auto" fill="url(#a)" image-rendering="auto" opacity=".992" solid-color="#000000" stop-color="#000000" style="font-feature-settings:normal;font-variant-alternates:normal;font-variant-caps:normal;font-variant-east-asian:normal;font-variant-ligatures:normal;font-variant-numeric:normal;font-variant-position:normal;font-variation-settings:normal;inline-size:0;isolation:auto;mix-blend-mode:normal;shape-margin:0;shape-padding:0;text-decoration-color:#000000;text-decoration-line:none;text-decoration-style:solid;text-indent:0;text-orientation:mixed;text-transform:none;white-space:normal"/></g></svg>
