<?xml version="1.0" encoding="UTF-8"?>
<svg width="204.37mm" height="27.315mm" version="1.1" viewBox="0 0 204.37 27.315" xmlns="http://www.w3.org/2000/svg" xmlns:xlink="http://www.w3.org/1999/xlink"><defs><linearGradient id="a" x1="97.274" x2="186.55" y1="87.362" y2="218.38" gradientTransform="matrix(.68697 0 0 .68697 -35.852 75.669)" gradientUnits="userSpaceOnUse" xlink:href="#b"/><linearGradient id="b"><stop stop-color="#8d5fd3" offset="0"/><stop stop-color="#3771c8" offset="1"/></linearGradient></defs><g transform="translate(-3.6459 -134.51)"><g fill="url(#a)" stroke-width=".97138" aria-label="NOUNSCALE"><path d="m26.57 161.28v-26.227h-6.955v9.1697c0 1.6319 0.07771 3.6523 0.27198 5.4396-0.89366-2.0982-2.0593-4.4683-3.1861-6.7996l-3.8078-7.8098h-9.2474v26.227h6.955v-10.724c0-1.7096-0.03885-2.6033-0.19427-4.1574 0.66053 1.7485 1.593 3.8466 2.6033 5.9059l4.3906 8.9754z"/><path d="m54.856 147.72c0-9.5194-5.4396-13.211-12.278-13.211-7.3435 0-13.327 5.5562-13.327 14.027 0 8.3149 4.0409 13.288 12.278 13.288 7.4601 0 13.327-5.5562 13.327-14.104zm-7.6932 0.34969c0 5.5562-3.0307 7.1104-5.2842 7.1104-3.4969 0-4.9345-2.7198-4.9345-7.1881 0-4.9345 2.5644-6.8773 5.09-6.8773 3.4581 0 5.1288 2.3701 5.1288 6.955z"/><path d="m79.607 150.87v-15.814h-7.1492v16.202c0 3.2638-0.93251 4.5071-3.8466 4.5071-2.9918 0-3.8466-1.5153-3.8466-4.3129v-16.397h-7.227v16.746c0 5.5562 2.2147 10.024 10.646 10.024 7.0327 0 11.423-3.3415 11.423-10.957z"/><path d="m106.73 161.28v-26.227h-6.955v9.1697c0 1.6319 0.07771 3.6523 0.27198 5.4396-0.89366-2.0982-2.0593-4.4683-3.1861-6.7996l-3.8078-7.8098h-9.2474v26.227h6.955v-10.724c0-1.7096-0.03885-2.6033-0.19427-4.1574 0.66053 1.7485 1.593 3.8466 2.6033 5.9059l4.3906 8.9754z"/><path d="m127.44 152.69c0-8.3537-10.102-7.1104-10.102-10.413 0-1.0102 0.8548-1.7485 2.8752-1.7485 1.593 0 3.0307 0.27199 4.4683 0.7771l0.62168-6.2556c-1.5542-0.3497-3.4969-0.50511-4.818-0.50511-6.9161 0-10.918 3.3415-10.918 8.548 0 8.9754 9.7914 6.7218 9.7914 10.53 0 1.2434-1.1268 1.865-2.5256 1.865-2.2924 0-4.274-0.50511-6.0225-1.2434l-0.62167 6.8773c1.9039 0.46626 3.8855 0.66053 6.4887 0.66053 6.2944 0 10.763-3.9243 10.763-9.092z"/><path d="m147.8 160.66-0.97137-6.4499c-1.0879 0.54397-2.7587 0.81595-3.8855 0.81595-4.0797 0-5.8282-2.4478-5.8282-6.9938 0-4.2352 2.137-6.6053 5.5562-6.6053 1.4765 0 2.8752 0.23313 4.1574 0.73824l0.89366-6.6053c-1.5153-0.46626-3.3415-0.69939-5.0511-0.69939-8.5869 0-13.521 5.6339-13.521 14.376 0 5.2842 2.137 12.395 12.433 12.395 2.0982 0 4.3906-0.31084 6.2167-0.97136z"/><path d="m174.49 161.28-8.9754-26.227h-8.276l-8.548 26.227h7.1492l1.3211-4.274h8.0818l1.3599 4.274zm-11.035-9.9468h-4.5848l1.2822-4.1963c0.38855-1.3211 0.69938-2.5644 0.93251-3.73h0.0777c0.23313 1.1656 0.58282 2.409 0.97136 3.6912z"/><path d="m190.34 161.28v-6.4499h-7.227v-19.777h-7.227v26.227z"/><path d="m208.02 161.28v-6.2556h-8.1206v-4.2352h7.6932v-5.9059h-7.6932v-3.6912h8.1206v-6.139h-15.348v26.227z"/></g></g></svg>
